<?xml version="1.0" standalone="yes"?>
<!DOCTYPE svg PUBLIC "-//W3C//DTD SVG 1.1//EN"
 "http://www.w3.org/Graphics/SVG/1.1/DTD/svg11.dtd">
<svg xmlns="http://www.w3.org/2000/svg" version="1.1"
  width="100%" height="100%" viewBox="0 0 1024 768"
  style="fill: none; stroke-width: 5; font-family: Helvetica;
 font: Helvetica;
">

<!-- Creator: NGspice -->

<rect x="0" y="0" width="1024" height="768" fill="black" stroke="none"/>
<text stroke="none" fill="white" font-size="16" x="358" y="752">
time
</text>
<text stroke="none" fill="white" font-size="16" x="10" y="16">
tran1: Inverter
</text>
<path stroke="white" stroke-width="5" d="M50 704l0 -639"/>
<text stroke="none" fill="white" font-size="16" x="35" y="728">
0.0
</text>
<path stroke="white" stroke-width="5" stroke-dasharray="1,2" d="M142 704l0 -639"/>
<text stroke="none" fill="white" font-size="16" x="127" y="728">
0.1
</text>
<path stroke="white" stroke-width="5" stroke-dasharray="1,2" d="M234 704l0 -639"/>
<text stroke="none" fill="white" font-size="16" x="219" y="728">
0.2
</text>
<path stroke="white" stroke-width="5" stroke-dasharray="1,2" d="M326 704l0 -639"/>
<text stroke="none" fill="white" font-size="16" x="311" y="728">
0.3
</text>
<path stroke="white" stroke-width="5" stroke-dasharray="1,2" d="M418 704l0 -639"/>
<text stroke="none" fill="white" font-size="16" x="403" y="728">
0.4
</text>
<path stroke="white" stroke-width="5" stroke-dasharray="1,2" d="M510 704l0 -639"/>
<text stroke="none" fill="white" font-size="16" x="495" y="728">
0.5
</text>
<path stroke="white" stroke-width="5" stroke-dasharray="1,2" d="M602 704l0 -639"/>
<text stroke="none" fill="white" font-size="16" x="587" y="728">
0.6
</text>
<path stroke="white" stroke-width="5" stroke-dasharray="1,2" d="M694 704l0 -639"/>
<text stroke="none" fill="white" font-size="16" x="679" y="728">
0.7
</text>
<path stroke="white" stroke-width="5" stroke-dasharray="1,2" d="M786 704l0 -639"/>
<text stroke="none" fill="white" font-size="16" x="771" y="728">
0.8
</text>
<path stroke="white" stroke-width="5" stroke-dasharray="1,2" d="M878 704l0 -639"/>
<text stroke="none" fill="white" font-size="16" x="863" y="728">
0.9
</text>
<path stroke="white" stroke-width="5" stroke-dasharray="1,2" d="M970 704l0 -639"/>
<text stroke="none" fill="white" font-size="16" x="955" y="728">
1.0
</text>
<text stroke="none" fill="white" font-size="16" x="614" y="752">
us
</text>
<path stroke="white" stroke-width="5" d="M50 704l920 0"/>
<text stroke="none" fill="white" font-size="16" x="8" y="712">
-0.0
</text>
<path stroke="white" stroke-width="5" stroke-dasharray="1,2" d="M50 633l920 0"/>
<text stroke="none" fill="white" font-size="16" x="18" y="641">
0.2
</text>
<path stroke="white" stroke-width="5" stroke-dasharray="1,2" d="M50 562l920 0"/>
<text stroke="none" fill="white" font-size="16" x="18" y="570">
0.4
</text>
<path stroke="white" stroke-width="5" stroke-dasharray="1,2" d="M50 491l920 0"/>
<text stroke="none" fill="white" font-size="16" x="18" y="499">
0.6
</text>
<path stroke="white" stroke-width="5" stroke-dasharray="1,2" d="M50 420l920 0"/>
<text stroke="none" fill="white" font-size="16" x="18" y="428">
0.8
</text>
<path stroke="white" stroke-width="5" stroke-dasharray="1,2" d="M50 349l920 0"/>
<text stroke="none" fill="white" font-size="16" x="18" y="357">
1.0
</text>
<path stroke="white" stroke-width="5" stroke-dasharray="1,2" d="M50 278l920 0"/>
<text stroke="none" fill="white" font-size="16" x="18" y="286">
1.2
</text>
<path stroke="white" stroke-width="5" stroke-dasharray="1,2" d="M50 207l920 0"/>
<text stroke="none" fill="white" font-size="16" x="18" y="215">
1.4
</text>
<path stroke="white" stroke-width="5" stroke-dasharray="1,2" d="M50 136l920 0"/>
<text stroke="none" fill="white" font-size="16" x="18" y="144">
1.6
</text>
<path stroke="white" stroke-width="5" stroke-dasharray="1,2" d="M50 65l920 0"/>
<text stroke="none" fill="white" font-size="16" x="18" y="73">
1.8
</text>
<text stroke="none" fill="white" font-size="16" x="10" y="32">
V
</text>
<path stroke="red" d="M460 23l46 0"/>
<text stroke="none" fill="white" font-size="16" x="516" y="32">
v(in)
</text>
<path stroke="red" d="M50 704l19 0 0 -1 1 0 2 -2 1 0 0 -1 1 -1 1 0 3 -3 1 0 3 -3 1 0 5 -5 1 0 3 -3 1 0 2 -2 1 0 0 -1 2 -2 1 0 3 -3 1 0 2 -2 1 0 2 -2 0 -1 1 0 2 -2 1 0 3 -3 1 0 5 -5 1 0 3 -3 1 0 3 -3 1 0 0 -1 1 -1 1 0 3 -3 1 0 3 -3 1 0 5 -5 1 0"/>
<path stroke="red" d="M146 643l3 -3 1 0 2 -2 1 0 0 -1 2 -2 1 0 3 -3 1 0 2 -2 1 0 2 -2 0 -1 1 0 3 -3 1 0 2 -2 1 0 5 -5 1 0 3 -3 1 0 3 -3 1 0 1 -1 0 -1 1 0 3 -3 1 0 3 -3 1 0 5 -5 1 0 3 -3 1 0 2 -2 1 0 1 -1 0 -1 1 -1 1 0 3 -3 1 0 2 -2 1 0 2 -2 0 -1"/>
<path stroke="red" d="M222 582l1 0 3 -3 1 0 2 -2 1 0 3 -3 1 0 0 -1 2 -2 1 0 2 -2 1 0 3 -3 1 0 1 -1 0 -1 1 -1 1 0 2 -2 1 0 3 -3 1 0 2 -2 1 0 0 -1 2 -2 1 0 3 -3 1 0 2 -2 1 0 1 -1 0 -1 1 -1 1 0 3 -3 1 0 2 -2 1 0 6 -6 1 0 2 -2 1 0 3 -3 1 0 0 -1 2 -2"/>
<path stroke="red" d="M293 526l1 0 2 -2 1 0 3 -3 1 0 2 -2 0 -1 1 0 2 -2 1 0 3 -3 1 0 3 -3 1 0 0 -1 1 -1 1 0 3 -3 1 0 3 -3 1 0 1 -1 0 -1 1 0 3 -3 1 0 2 -2 1 0 3 -3 1 0 0 -1 2 -2 1 0 2 -2 1 0 3 -3 1 0 1 -1 0 -1 1 -1 1 0 2 -2 1 0 3 -3 1 0 5 -5 1 0"/>
<path stroke="red" d="M364 471l3 -3 1 0 3 -3 1 0 0 -1 1 -1 1 0 3 -3 1 0 3 -3 1 0 5 -5 1 0 3 -3 1 0 2 -2 1 0 0 -1 2 -2 1 0 2 -2 1 0 3 -3 1 0 2 -2 0 -1 1 0 2 -2 1 0 3 -3 1 0 5 -5 1 0 3 -3 1 0 3 -3 1 0 1 -1 0 -1 1 0 3 -3 1 0 3 -3 1 0 5 -5 1 0 3 -3"/>
<path stroke="red" d="M448 404l1 0 2 -2 1 0 1 -1 0 -1 1 -1 1 0 3 -3 1 0 2 -2 1 0 2 -2 0 -1 1 0 3 -3 1 0 2 -2 1 0 3 -3 1 0 0 -1 1 -1 1 0 3 -3 1 0 3 -3 1 0 1 -1 0 -1 1 0 3 -3 1 0 3 -3 1 0 2 -2 1 0 0 -1 2 -2 1 0 3 -3 1 0 2 -2 1 0 1 -1 0 -1 1 -1"/>
<path stroke="red" d="M511 354l1 0 3 -3 1 0 2 -2 1 0 6 -6 1 0 2 -2 1 0 3 -3 1 0 0 -1 2 -2 1 0 2 -2 1 0 3 -3 1 0 2 -2 0 -1 1 0 2 -2 1 0 3 -3 1 0 2 -2 1 0 0 -1 2 -2 1 0 3 -3 1 0 2 -2 1 0 2 -2 0 -1 1 0 3 -3 1 0 2 -2 1 0 6 -6 1 0 2 -2 1 0 3 -3 1 0"/>
<path stroke="red" d="M590 293l1 -1 0 -1 1 -1 1 0 2 -2 1 0 3 -3 1 0 2 -2 0 -1 1 0 2 -2 1 0 3 -3 1 0 3 -3 1 0 0 -1 1 -1 1 0 3 -3 1 0 2 -2 1 0 2 -2 0 -1 1 0 3 -3 1 0 2 -2 1 0 6 -6 1 0 2 -2 1 0 3 -3 1 0 1 -1 0 -1 1 -1 1 0 2 -2 1 0 3 -3 1 0 2 -2"/>
<path stroke="red" d="M659 238l0 -1 1 0 2 -2 1 0 3 -3 1 0 3 -3 1 0 0 -1 1 -1 1 0 3 -3 1 0 3 -3 1 0 1 -1 0 -1 1 0 3 -3 1 0 3 -3 1 0 2 -2 1 0 0 -1 2 -2 1 0 2 -2 1 0 3 -3 1 0 1 -1 0 -1 1 -1 1 0 2 -2 1 0 3 -3 1 0 5 -5 1 0 3 -3 1 0 3 -3 1 0 0 -1 1 -1"/>
<path stroke="red" d="M729 182l1 0 3 -3 1 0 3 -3 1 0 5 -5 1 0 3 -3 1 0 2 -2 1 0 0 -1 2 -2 1 0 3 -3 1 0 2 -2 1 0 2 -2 0 -1 1 0 3 -3 1 0 2 -2 1 0 5 -5 1 0 3 -3 1 0 3 -3 1 0 1 -1 0 -1 1 0 3 -3 1 0 3 -3 1 0 5 -5 1 0 3 -3 1 0 2 -2 1 0 1 -1 0 -1 1 -1"/>
<path stroke="red" d="M810 118l1 0 3 -3 1 0 2 -2 1 0 2 -2 0 -1 1 0 3 -3 1 0 2 -2 1 0 3 -3 1 0 0 -1 2 -2 1 0 2 -2 1 0 3 -3 1 0 1 -1 0 -1 1 0 3 -3 1 0 3 -3 1 0 2 -2 1 0 0 -1 2 -2 1 0 3 -3 1 0 2 -2 1 0 1 -1 0 -1 1 -1 1 0 3 -3 1 0 2 -2 1 0 3 -3 92 0"/>
<path stroke="cyan" d="M50 23l46 0"/>
<text stroke="none" fill="white" font-size="16" x="106" y="32">
.v(out)
</text>
<path stroke="cyan" d="M50 65l284 0 1 1 20 0 1 1 9 0 1 1 6 0 1 1 5 0 1 1 3 0 1 1 2 0 1 1 3 0 1 1 2 0 1 1 2 0M395 75l0 -1M395 75l1 0 1 1 1 0 1 1 1 0 1 1 1 0 1 1 1 0 1 1 1 0 1 1M407 82l0 -1M407 82l1 0 4 4 1 0 3 3 1 2 1 1M418 93l0 -1M418 93l1 1"/>
<path stroke="cyan" d="M419 94l1 2 1 1 5 10 3 9 1 4M430 125l0 -5M430 125l1 6 1 8 1 9 2 24 2 26 1 15 2 28 1 15M441 271l0 -15M441 271l1 15 1 16 2 30 1 16 1 15 1 16 1 15 1 16 2 30 1 16M453 471l0 -15M453 471l4 60 1 14 1 15 1 14 2 26 1 12 1 11M464 633l0 -10"/>
<path stroke="cyan" d="M464 633l1 8 1 7 1 5 1 4 3 9 3 6 1 1 1 2M476 676l0 -1M476 676l1 1 1 2 4 4 1 0 3 3 1 0M487 687l0 -1M487 687l1 1 1 0 2 2 1 0 1 1 1 0 1 1 2 0 1 1 1 0M499 694l0 -1M499 694l2 0 1 1 2 0 1 1 2 0 1 1 2 0 1 1 4 0 1 1 5 0 1 1 4 0"/>
<path stroke="cyan" d="M526 700l1 1 8 0 1 1 11 0 1 1 27 0 1 1 394 0"/>
</svg>
